<mxfile host="65bd71144e">
    <diagram id="2eMK77q8ffezPjbaSJSB" name=" main">
        <mxGraphModel dx="535" dy="475" grid="1" gridSize="10" guides="1" tooltips="1" connect="1" arrows="1" fold="1" page="1" pageScale="1" pageWidth="827" pageHeight="1169" background="#ffffff" math="0" shadow="0">
            <root>
                <mxCell id="0"/>
                <mxCell id="1" parent="0"/>
                <mxCell id="4" value="" style="edgeStyle=none;html=1;fontFamily=Times New Roman;fontSize=14;fontColor=#000000;strokeColor=#000000;strokeWidth=3;" edge="1" parent="1" source="2" target="3">
                    <mxGeometry relative="1" as="geometry"/>
                </mxCell>
                <mxCell id="2" value="&lt;font face=&quot;Times New Roman&quot; color=&quot;#000000&quot;&gt;&lt;span style=&quot;font-size: 14px;&quot;&gt;Начало&lt;/span&gt;&lt;/font&gt;" style="ellipse;whiteSpace=wrap;html=1;fillColor=#FFFFFF;strokeColor=#000000;" vertex="1" parent="1">
                    <mxGeometry x="200" width="120" height="80" as="geometry"/>
                </mxCell>
                <mxCell id="3" value="a = 0.3" style="shape=process;whiteSpace=wrap;html=1;backgroundOutline=1;strokeColor=#000000;fontFamily=Times New Roman;fontSize=14;fontColor=#000000;fillColor=#FFFFFF;" vertex="1" parent="1">
                    <mxGeometry x="200" y="110" width="120" height="60" as="geometry"/>
                </mxCell>
                <mxCell id="5" value="x = 0" style="shape=process;whiteSpace=wrap;html=1;backgroundOutline=1;strokeColor=#000000;fontFamily=Times New Roman;fontSize=14;fontColor=#000000;fillColor=#FFFFFF;" vertex="1" parent="1">
                    <mxGeometry x="200" y="200" width="120" height="60" as="geometry"/>
                </mxCell>
                <mxCell id="11" value="" style="edgeStyle=none;html=1;strokeColor=#000000;strokeWidth=3;fontFamily=Times New Roman;fontSize=14;fontColor=#000000;" edge="1" parent="1" source="6" target="10">
                    <mxGeometry relative="1" as="geometry"/>
                </mxCell>
                <mxCell id="6" value="y = 0" style="shape=process;whiteSpace=wrap;html=1;backgroundOutline=1;strokeColor=#000000;fontFamily=Times New Roman;fontSize=14;fontColor=#000000;fillColor=#FFFFFF;" vertex="1" parent="1">
                    <mxGeometry x="200" y="290" width="120" height="60" as="geometry"/>
                </mxCell>
                <mxCell id="8" value="" style="endArrow=classic;html=1;strokeColor=#000000;strokeWidth=3;fontFamily=Times New Roman;fontSize=14;fontColor=#000000;exitX=0.5;exitY=1;exitDx=0;exitDy=0;entryX=0.5;entryY=0;entryDx=0;entryDy=0;" edge="1" parent="1" source="3" target="5">
                    <mxGeometry width="50" height="50" relative="1" as="geometry">
                        <mxPoint x="250" y="270" as="sourcePoint"/>
                        <mxPoint x="300" y="220" as="targetPoint"/>
                    </mxGeometry>
                </mxCell>
                <mxCell id="9" value="" style="endArrow=classic;html=1;strokeColor=#000000;strokeWidth=3;fontFamily=Times New Roman;fontSize=14;fontColor=#000000;entryX=0.5;entryY=0;entryDx=0;entryDy=0;" edge="1" parent="1" target="6">
                    <mxGeometry width="50" height="50" relative="1" as="geometry">
                        <mxPoint x="260" y="260" as="sourcePoint"/>
                        <mxPoint x="300" y="220" as="targetPoint"/>
                    </mxGeometry>
                </mxCell>
                <mxCell id="13" value="" style="edgeStyle=none;html=1;strokeColor=#000000;strokeWidth=3;fontFamily=Times New Roman;fontSize=14;fontColor=#000000;" edge="1" parent="1" source="10" target="12">
                    <mxGeometry relative="1" as="geometry"/>
                </mxCell>
                <mxCell id="10" value="result = 0" style="shape=process;whiteSpace=wrap;html=1;backgroundOutline=1;strokeColor=#000000;fontFamily=Times New Roman;fontSize=14;fontColor=#000000;fillColor=#FFFFFF;" vertex="1" parent="1">
                    <mxGeometry x="200" y="380" width="120" height="60" as="geometry"/>
                </mxCell>
                <mxCell id="12" value="scanf(&quot;%d&quot;, &amp;amp;x) != 1" style="rhombus;whiteSpace=wrap;html=1;strokeColor=#000000;fontFamily=Times New Roman;fontSize=14;fontColor=#000000;fillColor=#FFFFFF;" vertex="1" parent="1">
                    <mxGeometry x="155" y="460" width="210" height="80" as="geometry"/>
                </mxCell>
                <mxCell id="14" value="" style="endArrow=classic;html=1;strokeColor=#000000;strokeWidth=3;fontFamily=Times New Roman;fontSize=14;fontColor=#000000;exitX=0.5;exitY=1;exitDx=0;exitDy=0;entryX=0.5;entryY=0;entryDx=0;entryDy=0;" edge="1" parent="1" source="12" target="15">
                    <mxGeometry width="50" height="50" relative="1" as="geometry">
                        <mxPoint x="290" y="560" as="sourcePoint"/>
                        <mxPoint x="260" y="590" as="targetPoint"/>
                    </mxGeometry>
                </mxCell>
                <mxCell id="18" value="" style="edgeStyle=none;html=1;strokeColor=#000000;strokeWidth=3;fontFamily=Times New Roman;fontSize=14;fontColor=#000000;" edge="1" parent="1" source="15" target="17">
                    <mxGeometry relative="1" as="geometry"/>
                </mxCell>
                <mxCell id="15" value="&quot;Please, insert a valid value&quot;" style="shape=parallelogram;perimeter=parallelogramPerimeter;whiteSpace=wrap;html=1;fixedSize=1;strokeColor=#000000;fontFamily=Times New Roman;fontSize=14;fontColor=#000000;fillColor=#FFFFFF;" vertex="1" parent="1">
                    <mxGeometry x="160" y="600" width="200" height="60" as="geometry"/>
                </mxCell>
                <mxCell id="16" value="true" style="text;html=1;align=center;verticalAlign=middle;resizable=0;points=[];autosize=1;strokeColor=none;fillColor=none;fontSize=14;fontFamily=Times New Roman;fontColor=#000000;" vertex="1" parent="1">
                    <mxGeometry x="205" y="545" width="50" height="30" as="geometry"/>
                </mxCell>
                <mxCell id="17" value="abort()" style="ellipse;whiteSpace=wrap;html=1;strokeColor=#000000;fontFamily=Times New Roman;fontSize=14;fontColor=#000000;fillColor=#FFFFFF;" vertex="1" parent="1">
                    <mxGeometry x="200" y="690" width="120" height="80" as="geometry"/>
                </mxCell>
                <mxCell id="19" value="" style="endArrow=none;html=1;strokeColor=#000000;strokeWidth=3;fontFamily=Times New Roman;fontSize=14;fontColor=#000000;exitX=1;exitY=0.5;exitDx=0;exitDy=0;" edge="1" parent="1" source="12">
                    <mxGeometry width="50" height="50" relative="1" as="geometry">
                        <mxPoint x="460" y="580" as="sourcePoint"/>
                        <mxPoint x="470" y="500" as="targetPoint"/>
                    </mxGeometry>
                </mxCell>
                <mxCell id="20" value="" style="endArrow=classic;html=1;strokeColor=#000000;strokeWidth=3;fontFamily=Times New Roman;fontSize=14;fontColor=#000000;" edge="1" parent="1">
                    <mxGeometry width="50" height="50" relative="1" as="geometry">
                        <mxPoint x="470" y="500" as="sourcePoint"/>
                        <mxPoint x="470" y="590" as="targetPoint"/>
                    </mxGeometry>
                </mxCell>
                <mxCell id="21" value="false" style="text;html=1;align=center;verticalAlign=middle;resizable=0;points=[];autosize=1;strokeColor=none;fillColor=none;fontSize=14;fontFamily=Times New Roman;fontColor=#000000;" vertex="1" parent="1">
                    <mxGeometry x="385" y="465" width="50" height="30" as="geometry"/>
                </mxCell>
                <mxCell id="22" value="a*x &amp;lt; 1" style="rhombus;whiteSpace=wrap;html=1;strokeColor=#000000;fontFamily=Times New Roman;fontSize=14;fontColor=#000000;fillColor=#FFFFFF;" vertex="1" parent="1">
                    <mxGeometry x="430" y="590" width="80" height="80" as="geometry"/>
                </mxCell>
                <mxCell id="23" value="" style="endArrow=classic;html=1;strokeColor=#000000;strokeWidth=3;fontFamily=Times New Roman;fontSize=14;fontColor=#000000;exitX=0.5;exitY=1;exitDx=0;exitDy=0;" edge="1" parent="1" source="22">
                    <mxGeometry width="50" height="50" relative="1" as="geometry">
                        <mxPoint x="470" y="660" as="sourcePoint"/>
                        <mxPoint x="470" y="720" as="targetPoint"/>
                    </mxGeometry>
                </mxCell>
                <mxCell id="24" value="result = upper_equation(a, x)" style="shape=process;whiteSpace=wrap;html=1;backgroundOutline=1;strokeColor=#000000;fontFamily=Times New Roman;fontSize=14;fontColor=#000000;fillColor=#FFFFFF;" vertex="1" parent="1">
                    <mxGeometry x="350" y="720" width="211" height="60" as="geometry"/>
                </mxCell>
                <mxCell id="25" value="true" style="text;html=1;align=center;verticalAlign=middle;resizable=0;points=[];autosize=1;strokeColor=none;fillColor=none;fontSize=14;fontFamily=Times New Roman;fontColor=#000000;" vertex="1" parent="1">
                    <mxGeometry x="414" y="670" width="50" height="30" as="geometry"/>
                </mxCell>
                <mxCell id="26" value="" style="endArrow=none;html=1;strokeColor=#000000;strokeWidth=3;fontFamily=Times New Roman;fontSize=14;fontColor=#000000;exitX=1;exitY=0.5;exitDx=0;exitDy=0;" edge="1" parent="1" source="22">
                    <mxGeometry width="50" height="50" relative="1" as="geometry">
                        <mxPoint x="470" y="640" as="sourcePoint"/>
                        <mxPoint x="680" y="630" as="targetPoint"/>
                    </mxGeometry>
                </mxCell>
                <mxCell id="27" value="" style="endArrow=classic;html=1;strokeColor=#000000;strokeWidth=3;fontFamily=Times New Roman;fontSize=14;fontColor=#000000;" edge="1" parent="1">
                    <mxGeometry width="50" height="50" relative="1" as="geometry">
                        <mxPoint x="680.33" y="630" as="sourcePoint"/>
                        <mxPoint x="680" y="720" as="targetPoint"/>
                        <Array as="points">
                            <mxPoint x="680" y="700"/>
                        </Array>
                    </mxGeometry>
                </mxCell>
                <mxCell id="28" value="result = lower_equation(a, x)" style="shape=process;whiteSpace=wrap;html=1;backgroundOutline=1;strokeColor=#000000;fontFamily=Times New Roman;fontSize=14;fontColor=#000000;fillColor=#FFFFFF;" vertex="1" parent="1">
                    <mxGeometry x="570" y="720" width="210" height="60" as="geometry"/>
                </mxCell>
                <mxCell id="29" value="false" style="text;html=1;align=center;verticalAlign=middle;resizable=0;points=[];autosize=1;strokeColor=none;fillColor=none;fontSize=14;fontFamily=Times New Roman;fontColor=#000000;" vertex="1" parent="1">
                    <mxGeometry x="565" y="595" width="50" height="30" as="geometry"/>
                </mxCell>
                <mxCell id="30" value="" style="endArrow=none;html=1;strokeColor=#000000;strokeWidth=3;fontFamily=Times New Roman;fontSize=14;fontColor=#000000;exitX=0.5;exitY=1;exitDx=0;exitDy=0;" edge="1" parent="1" source="24">
                    <mxGeometry width="50" height="50" relative="1" as="geometry">
                        <mxPoint x="560" y="810" as="sourcePoint"/>
                        <mxPoint x="456" y="810" as="targetPoint"/>
                    </mxGeometry>
                </mxCell>
                <mxCell id="31" value="" style="endArrow=none;html=1;strokeColor=#000000;strokeWidth=3;fontFamily=Times New Roman;fontSize=14;fontColor=#000000;entryX=0.5;entryY=1;entryDx=0;entryDy=0;" edge="1" parent="1" target="28">
                    <mxGeometry width="50" height="50" relative="1" as="geometry">
                        <mxPoint x="675" y="810" as="sourcePoint"/>
                        <mxPoint x="610" y="760" as="targetPoint"/>
                    </mxGeometry>
                </mxCell>
                <mxCell id="32" value="" style="endArrow=none;html=1;strokeColor=#000000;strokeWidth=3;fontFamily=Times New Roman;fontSize=14;fontColor=#000000;" edge="1" parent="1">
                    <mxGeometry width="50" height="50" relative="1" as="geometry">
                        <mxPoint x="460" y="810" as="sourcePoint"/>
                        <mxPoint x="680" y="810" as="targetPoint"/>
                    </mxGeometry>
                </mxCell>
                <mxCell id="33" value="" style="endArrow=classic;html=1;strokeColor=#000000;strokeWidth=3;fontFamily=Times New Roman;fontSize=14;fontColor=#000000;" edge="1" parent="1">
                    <mxGeometry width="50" height="50" relative="1" as="geometry">
                        <mxPoint x="570" y="810" as="sourcePoint"/>
                        <mxPoint x="570" y="860" as="targetPoint"/>
                    </mxGeometry>
                </mxCell>
                <mxCell id="36" value="" style="edgeStyle=none;html=1;strokeColor=#000000;strokeWidth=3;fontFamily=Times New Roman;fontSize=14;fontColor=#000000;" edge="1" parent="1" source="34" target="35">
                    <mxGeometry relative="1" as="geometry"/>
                </mxCell>
                <mxCell id="34" value="result" style="shape=parallelogram;perimeter=parallelogramPerimeter;whiteSpace=wrap;html=1;fixedSize=1;strokeColor=#000000;fontFamily=Times New Roman;fontSize=14;fontColor=#000000;fillColor=#FFFFFF;" vertex="1" parent="1">
                    <mxGeometry x="510" y="860" width="120" height="60" as="geometry"/>
                </mxCell>
                <mxCell id="35" value="0" style="ellipse;whiteSpace=wrap;html=1;strokeColor=#000000;fontFamily=Times New Roman;fontSize=14;fontColor=#000000;fillColor=#FFFFFF;" vertex="1" parent="1">
                    <mxGeometry x="510" y="950" width="120" height="80" as="geometry"/>
                </mxCell>
            </root>
        </mxGraphModel>
    </diagram>
    <diagram id="Sr9rN9NheBS6kXaJD0Lf" name="upper_equation">
        <mxGraphModel dx="535" dy="475" grid="1" gridSize="10" guides="1" tooltips="1" connect="1" arrows="1" fold="1" page="1" pageScale="1" pageWidth="827" pageHeight="1169" background="#ffffff" math="0" shadow="0">
            <root>
                <mxCell id="0"/>
                <mxCell id="1" parent="0"/>
                <mxCell id="pV1ag0UtLzJgjzcIBpbL-3" value="" style="edgeStyle=none;html=1;strokeColor=#000000;strokeWidth=3;fontFamily=Times New Roman;fontSize=14;fontColor=#000000;" edge="1" parent="1" source="pV1ag0UtLzJgjzcIBpbL-1" target="pV1ag0UtLzJgjzcIBpbL-2">
                    <mxGeometry relative="1" as="geometry"/>
                </mxCell>
                <mxCell id="pV1ag0UtLzJgjzcIBpbL-1" value="a, x" style="ellipse;whiteSpace=wrap;html=1;strokeColor=#000000;fontFamily=Times New Roman;fontSize=14;fontColor=#000000;fillColor=#FFFFFF;" vertex="1" parent="1">
                    <mxGeometry x="200" width="120" height="80" as="geometry"/>
                </mxCell>
                <mxCell id="pV1ag0UtLzJgjzcIBpbL-2" value="a * sin((x*x + 1)/10)" style="ellipse;whiteSpace=wrap;html=1;strokeColor=#000000;fontFamily=Times New Roman;fontSize=14;fontColor=#000000;fillColor=#FFFFFF;" vertex="1" parent="1">
                    <mxGeometry x="200" y="110" width="120" height="80" as="geometry"/>
                </mxCell>
            </root>
        </mxGraphModel>
    </diagram>
    <diagram id="yGDH3sDjAofPbfTaN_Tu" name="lower_equation">
        <mxGraphModel dx="535" dy="475" grid="1" gridSize="10" guides="1" tooltips="1" connect="1" arrows="1" fold="1" page="1" pageScale="1" pageWidth="827" pageHeight="1169" background="#ffffff" math="0" shadow="0">
            <root>
                <mxCell id="0"/>
                <mxCell id="1" parent="0"/>
                <mxCell id="T1YW7llct4WsSSsAtdJ6-3" value="" style="edgeStyle=none;html=1;strokeColor=#000000;strokeWidth=3;fontFamily=Times New Roman;fontSize=14;fontColor=#000000;" edge="1" parent="1" source="T1YW7llct4WsSSsAtdJ6-1" target="T1YW7llct4WsSSsAtdJ6-2">
                    <mxGeometry relative="1" as="geometry"/>
                </mxCell>
                <mxCell id="T1YW7llct4WsSSsAtdJ6-1" value="a, x" style="ellipse;whiteSpace=wrap;html=1;strokeColor=#000000;fontFamily=Times New Roman;fontSize=14;fontColor=#000000;fillColor=#FFFFFF;" vertex="1" parent="1">
                    <mxGeometry x="210" width="120" height="80" as="geometry"/>
                </mxCell>
                <mxCell id="T1YW7llct4WsSSsAtdJ6-2" value="a * cos((x-1)/10)" style="ellipse;whiteSpace=wrap;html=1;strokeColor=#000000;fontFamily=Times New Roman;fontSize=14;fontColor=#000000;fillColor=#FFFFFF;" vertex="1" parent="1">
                    <mxGeometry x="210" y="120" width="120" height="80" as="geometry"/>
                </mxCell>
            </root>
        </mxGraphModel>
    </diagram>
</mxfile>